<?xml version="1.0" standalone="no"?>
<!DOCTYPE svg PUBLIC "-//W3C//DTD SVG 20010904//EN"
 "http://www.w3.org/TR/2001/REC-SVG-20010904/DTD/svg10.dtd">
<svg version="1.0" xmlns="http://www.w3.org/2000/svg"
 width="425.000000pt" height="146.000000pt" viewBox="0 0 425.000000 146.000000"
 preserveAspectRatio="xMidYMid meet">

<g transform="translate(0.000000,146.000000) scale(0.100000,-0.100000)"
fill="#000000" stroke="none">
<path d="M900 1191 c-42 -9 -77 -26 -107 -53 -12 -11 -26 -17 -33 -13 -6 3 -9
3 -8 -2 1 -4 -13 -30 -30 -58 -18 -27 -38 -68 -44 -90 -8 -27 -13 -34 -16 -22
-5 24 14 73 46 115 35 48 21 49 -17 2 -17 -22 -37 -40 -44 -40 -31 0 -42 -35
-43 -138 0 -68 -4 -106 -12 -111 -17 -10 20 -75 46 -79 11 -2 32 -20 46 -41
56 -80 157 -131 261 -132 107 -1 185 32 253 105 23 25 50 46 60 46 20 0 62 51
62 75 0 9 -4 13 -10 10 -6 -4 -10 32 -10 100 0 79 3 104 12 99 6 -4 3 5 -8 19
-10 15 -23 27 -27 27 -5 0 -34 27 -65 60 -87 95 -210 142 -312 121z m-16 -77
c10 -27 7 -93 -6 -114 -17 -27 -2 -40 63 -51 48 -7 45 -8 -26 -4 -94 5 -200
-6 -217 -23 -16 -16 -23 -124 -10 -149 12 -21 81 -37 213 -49 79 -7 270 10
301 27 9 5 23 27 29 48 15 51 -6 125 -36 128 -11 1 -46 6 -78 12 -32 5 -65 7
-74 4 -11 -5 -14 -1 -10 13 3 10 9 52 12 92 4 39 10 74 14 77 12 7 104 -60
129 -94 54 -73 78 -208 47 -261 -7 -14 -20 -39 -28 -55 -21 -46 -102 -112
-159 -131 -104 -34 -232 -1 -305 79 -73 81 -99 179 -69 252 8 19 13 35 10 35
-2 0 5 17 15 39 23 44 77 98 123 124 40 21 54 22 62 1z m31 -237 c19 -27 19
-48 -1 -73 -14 -17 -15 -17 -10 -1 14 43 -41 76 -72 45 -16 -16 -15 -28 3 -28
19 0 20 -16 1 -23 -35 -14 -50 58 -18 85 35 31 73 29 97 -5z m190 3 c22 -25
23 -67 0 -88 -16 -16 -17 -16 -6 5 6 12 8 29 5 37 -8 22 -51 31 -69 16 -20
-16 -20 -41 0 -34 19 8 19 -3 1 -21 -32 -33 -51 51 -19 87 21 24 65 23 88 -2z
m182 -12 c-3 -7 -5 -2 -5 12 0 14 2 19 5 13 2 -7 2 -19 0 -25z"/>
<path d="M1539 1033 c-14 -38 -149 -385 -156 -400 -4 -9 8 -13 39 -13 43 0 44
1 59 43 l16 42 94 3 94 3 15 -43 c14 -41 17 -43 58 -46 38 -3 43 -1 38 15 -3
10 -41 108 -84 218 l-77 200 -43 3 c-38 3 -43 1 -53 -25z m106 -223 c6 -18 2
-20 -54 -20 -34 0 -61 2 -61 4 0 2 11 28 23 57 13 30 27 63 31 74 6 16 12 10
31 -38 13 -31 27 -66 30 -77z"/>
<path d="M2630 843 l0 -219 35 4 35 4 0 89 c0 51 4 89 10 89 5 0 31 -40 57
-89 48 -89 48 -89 91 -93 23 -2 42 -3 42 -2 0 1 -23 43 -51 95 -47 87 -49 94
-33 106 10 7 21 13 26 13 14 0 38 59 38 95 0 47 -22 88 -55 103 -14 7 -64 15
-110 18 l-85 7 0 -220z m168 125 c16 -14 15 -53 -3 -68 -8 -6 -32 -14 -55 -17
l-40 -6 0 50 c0 27 3 53 7 57 10 9 74 -2 91 -16z"/>
<path d="M1853 934 c-3 -8 -3 -61 -1 -117 7 -155 40 -200 143 -200 109 0 139
46 139 213 l1 115 -37 3 -38 3 0 -103 c0 -138 -18 -171 -85 -154 -33 8 -45 53
-45 162 l0 94 -35 0 c-23 0 -38 -6 -42 -16z"/>
<path d="M2275 931 c-52 -31 -69 -68 -70 -143 0 -72 14 -102 68 -142 36 -26
127 -28 155 -3 10 9 22 17 25 17 14 0 -6 -55 -25 -72 -25 -22 -97 -24 -124 -3
-20 15 -104 21 -104 6 0 -16 42 -61 70 -76 44 -23 157 -20 198 5 54 33 62 67
62 260 l0 171 -37 -3 c-24 -2 -37 -8 -35 -15 3 -17 -18 -16 -42 2 -28 21 -105
19 -141 -4z m156 -80 c68 -68 3 -181 -87 -151 -69 23 -87 99 -35 151 40 39 82
39 122 0z"/>
<path d="M3042 939 c-13 -5 -21 -13 -18 -18 3 -4 -4 -17 -17 -27 l-22 -19 20
24 c15 17 16 23 5 19 -23 -7 -60 -88 -60 -133 0 -45 37 -126 60 -133 11 -4 10
2 -5 19 l-20 24 22 -19 c13 -10 20 -22 17 -27 -19 -31 120 -37 154 -5 23 20
36 21 28 1 -4 -12 3 -15 34 -15 l40 0 0 155 0 155 -40 0 c-31 0 -38 -3 -34
-15 8 -19 6 -19 -41 5 -42 21 -85 25 -123 9z m136 -84 c14 -13 26 -39 29 -63
5 -37 2 -45 -30 -77 -46 -46 -78 -46 -123 -1 -41 41 -46 89 -13 130 39 50 92
54 137 11z m-133 -155 c10 -11 16 -20 13 -20 -3 0 -13 9 -23 20 -10 11 -16 20
-13 20 3 0 13 -9 23 -20z m155 6 c0 -2 -8 -10 -17 -17 -16 -13 -17 -12 -4 4
13 16 21 21 21 13z"/>
<path d="M3333 928 c3 -7 31 -74 62 -149 l56 -137 -30 -61 c-17 -33 -31 -63
-31 -66 0 -4 16 -5 36 -3 l37 3 97 213 98 212 -37 0 -37 0 -43 -94 c-24 -52
-41 -99 -38 -103 3 -5 -3 -9 -13 -9 -10 0 -16 5 -14 11 2 5 -14 51 -35 100
-37 89 -38 90 -76 93 -28 3 -36 0 -32 -10z"/>
<path d="M3202 388 c-7 -7 -12 -17 -12 -24 0 -7 -6 -15 -12 -18 -10 -5 -10 -7
0 -12 7 -3 12 -25 12 -55 0 -27 5 -49 10 -49 6 0 10 22 10 49 0 30 5 51 13 54
9 4 8 8 -3 16 -13 10 -13 13 3 25 9 7 17 16 17 20 0 10 -25 7 -38 -6z"/>
<path d="M1380 310 l0 -80 66 0 c41 0 63 4 59 10 -3 6 -28 10 -56 10 -46 0
-49 2 -49 25 0 23 3 25 50 25 64 0 66 18 3 22 -41 3 -48 6 -51 26 -3 20 0 22
47 22 28 0 51 5 51 10 0 6 -27 10 -60 10 l-60 0 0 -80z"/>
<path d="M1990 380 c0 -5 4 -10 9 -10 6 0 13 5 16 10 3 6 -1 10 -9 10 -9 0
-16 -4 -16 -10z"/>
<path d="M2620 310 c0 -64 3 -80 15 -80 10 0 15 11 15 35 0 28 4 35 20 35 11
0 28 -10 38 -22 33 -40 54 -60 59 -54 3 3 -7 22 -22 42 l-27 36 21 14 c23 17
27 44 9 62 -7 7 -38 12 -70 12 l-58 0 0 -80z m113 51 c17 -17 -12 -41 -49 -41
-31 0 -34 2 -34 31 0 31 1 31 37 26 20 -4 41 -11 46 -16z"/>
<path d="M3000 366 c0 -19 -4 -22 -22 -19 -34 6 -59 -17 -60 -55 -1 -47 28
-74 70 -66 l32 7 0 78 c0 46 -4 79 -10 79 -5 0 -10 -11 -10 -24z m-5 -81 c0
-36 -2 -40 -25 -40 -20 0 -26 6 -28 28 -5 42 5 59 30 55 20 -3 23 -9 23 -43z"/>
<path d="M3250 380 c0 -5 5 -10 10 -10 6 0 10 5 10 10 0 6 -4 10 -10 10 -5 0
-10 -4 -10 -10z"/>
<path d="M3640 366 c0 -19 -4 -22 -23 -19 -32 6 -57 -21 -57 -61 0 -44 27 -68
68 -60 l32 7 0 78 c0 46 -4 79 -10 79 -5 0 -10 -11 -10 -24z m-5 -81 c0 -31
-4 -41 -19 -43 -22 -5 -36 14 -36 49 0 32 8 41 35 37 16 -2 20 -10 20 -43z"/>
<path d="M1530 345 c0 -3 8 -17 17 -31 15 -24 15 -27 -1 -55 -20 -34 -5 -39
19 -6 12 15 19 18 22 9 7 -18 34 -44 40 -38 3 3 -5 19 -17 35 l-21 31 20 27
c12 14 19 29 15 32 -3 3 -15 -5 -25 -18 l-20 -24 -15 21 c-14 20 -34 30 -34
17z"/>
<path d="M1650 263 c0 -49 4 -83 10 -83 6 0 10 11 10 25 0 22 3 25 24 19 30
-7 66 25 66 59 0 42 -26 66 -70 64 l-40 -1 0 -83z m86 43 c7 -27 -10 -66 -29
-66 -20 0 -37 21 -37 45 0 46 55 63 66 21z"/>
<path d="M1796 331 c-26 -29 -18 -82 15 -100 24 -13 29 -13 54 3 33 21 25 35
-10 16 -20 -11 -27 -11 -40 0 -26 21 -17 30 30 30 37 0 45 3 45 18 0 24 -31
52 -57 52 -11 0 -28 -9 -37 -19z m68 -16 c4 -12 -3 -15 -29 -15 -33 0 -43 8
-28 23 12 13 51 7 57 -8z"/>
<path d="M1914 341 c-2 -2 -4 -28 -4 -58 0 -40 4 -53 15 -53 11 0 15 12 15 46
0 37 4 47 20 51 31 8 24 22 -11 20 -17 -1 -32 -4 -35 -6z"/>
<path d="M1997 343 c-11 -10 -8 -113 3 -113 6 0 10 27 10 60 0 61 -1 65 -13
53z"/>
<path d="M2057 332 c-25 -27 -22 -78 5 -96 30 -21 51 -20 73 4 16 18 16 20 2
20 -10 0 -17 -4 -17 -10 0 -14 -33 -13 -48 2 -21 21 -13 28 33 28 37 0 45 3
45 18 0 24 -31 52 -57 52 -11 0 -27 -8 -36 -18z m71 -19 c2 -9 -8 -13 -32 -13
-28 0 -34 3 -29 16 7 18 54 16 61 -3z"/>
<path d="M2180 288 c0 -70 18 -78 22 -10 3 40 6 47 25 50 25 4 39 -30 31 -73
-4 -17 -1 -25 8 -25 17 0 19 72 4 101 -9 15 -20 19 -50 17 l-40 -3 0 -57z"/>
<path d="M2316 328 c-9 -12 -16 -33 -16 -45 0 -25 32 -63 53 -63 20 0 58 30
51 41 -4 6 -14 3 -26 -7 -14 -14 -23 -16 -36 -8 -21 14 -27 50 -12 70 15 17
47 18 53 2 2 -7 8 -10 12 -6 13 12 -15 38 -41 38 -12 0 -30 -10 -38 -22z"/>
<path d="M2436 331 c-26 -29 -18 -82 15 -100 24 -13 29 -13 54 3 33 21 25 35
-10 16 -20 -11 -27 -11 -40 0 -26 21 -17 30 30 30 37 0 45 3 45 18 0 24 -31
52 -57 52 -11 0 -28 -9 -37 -19z m68 -16 c4 -12 -3 -15 -29 -15 -26 0 -33 3
-29 15 4 8 16 15 29 15 13 0 25 -7 29 -15z"/>
<path d="M2806 337 c-23 -17 -24 -72 -1 -97 21 -24 44 -25 71 -6 24 18 13 31
-14 15 -23 -14 -52 -6 -52 16 0 11 11 15 45 15 49 0 56 10 29 48 -17 25 -51
29 -78 9z m62 -24 c2 -9 -7 -13 -27 -13 -30 0 -39 9 -24 24 11 10 46 3 51 -11z"/>
<path d="M3065 334 c-25 -26 -16 -85 16 -103 24 -13 29 -13 54 3 33 21 25 35
-10 16 -20 -11 -27 -11 -40 0 -26 21 -17 30 30 30 49 0 56 10 29 48 -18 26
-56 29 -79 6z m69 -19 c4 -12 -3 -15 -29 -15 -33 0 -43 8 -28 23 12 13 51 7
57 -8z"/>
<path d="M3250 290 c0 -33 4 -60 10 -60 6 0 10 27 10 60 0 33 -4 60 -10 60 -6
0 -10 -27 -10 -60z"/>
<path d="M3300 288 c0 -32 4 -58 10 -58 6 0 10 17 10 38 0 46 12 65 36 60 15
-2 20 -14 22 -51 4 -62 22 -61 22 2 0 57 -12 70 -62 68 l-38 -1 0 -58z"/>
<path d="M3445 334 c-25 -26 -16 -85 16 -103 24 -13 29 -13 54 3 33 21 25 35
-10 16 -20 -11 -27 -11 -40 0 -26 21 -17 30 30 30 49 0 56 10 29 48 -18 26
-56 29 -79 6z m65 -19 c11 -13 7 -15 -24 -15 -34 0 -44 8 -29 23 11 12 40 8
53 -8z"/>
</g>
</svg>
